<svg xmlns="http://www.w3.org/2000/svg" width="512" height="512" viewBox="0 0 512 512" version="1.1">
	<path d="M 0 256.002 L 0 512.004 256.250 511.752 L 512.500 511.500 512.752 255.750 L 513.004 0 421.835 -0 C 371.693 -0, 331.004 0.337, 331.416 0.750 C 331.828 1.162, 370.619 1.725, 417.619 2 C 492.123 2.436, 503.195 2.692, 504.021 4 C 505.538 6.400, 505.319 503.281, 503.800 504.800 C 502.873 505.727, 446.089 506, 254.300 506 C 18.493 506, 6 505.912, 5.994 504.250 C 5.700 416.382, 6.190 3.477, 6.589 3.077 C 6.906 2.760, 47.366 2.275, 96.500 2 C 145.634 1.725, 186.172 1.163, 186.584 0.750 C 186.996 0.337, 145.183 0, 93.667 0 L 0 0 0 256.002 M 184.491 5.359 C 166.954 17.120, 149.641 38.724, 133.310 69.227 C 128.973 77.327, 124.511 85.178, 123.394 86.674 C 121.493 89.220, 121.167 89.312, 118.268 88.111 C 114.946 86.735, 113.244 83.599, 112.786 78.012 L 112.500 74.524 110.302 76.895 C 107.576 79.835, 103.998 94.449, 104.004 102.624 C 104.009 110.273, 106.394 124.829, 109.053 133.437 C 110.212 137.189, 114.002 147.969, 117.474 157.393 C 124.206 175.659, 127.730 189.686, 128.679 201.988 C 129.227 209.096, 129.102 209.770, 126.733 212.524 C 124.446 215.183, 123.613 215.467, 118.101 215.467 C 110.833 215.467, 110.484 216.398, 115.912 221.301 C 121.720 226.548, 123.721 227.351, 132.500 227.952 L 140.500 228.500 140.799 234.810 C 141.124 241.651, 139.051 254.546, 135.912 265.214 C 133.169 274.538, 129.026 279.568, 119.469 285.179 C 115.086 287.752, 110.161 290.679, 108.525 291.683 C 106.889 292.687, 103.418 296.737, 100.811 300.683 C 97.758 305.304, 93.591 309.837, 89.106 313.415 C 84.407 317.165, 81.225 320.677, 79.321 324.215 C 76.868 328.774, 75.443 330.047, 68.393 333.979 C 54.915 341.495, 52.096 343.954, 42.719 356.372 C 32.018 370.543, 21.819 389, 24.689 389 C 25.142 389, 29.467 384.294, 34.299 378.542 C 47.136 363.264, 65.730 350, 74.312 350 C 78.481 350, 100.249 357.226, 113 362.843 C 118.225 365.145, 127.900 369.983, 134.500 373.594 C 173.902 395.152, 187.213 402.103, 231.749 424.375 C 258.833 437.919, 281.214 449, 281.484 449 C 282.217 449, 308.718 409.269, 322.505 387.500 C 329.279 376.805, 335.186 368.500, 336.019 368.500 C 337.041 368.500, 339.370 373.931, 343.533 386.026 C 347.840 398.538, 353.188 410.913, 362.225 429.276 C 369.188 443.424, 375.308 455, 375.825 455 C 376.881 455, 377.543 449.305, 379.011 427.594 C 380.124 411.125, 379.610 397.830, 377.369 385.137 C 376.557 380.537, 376.116 376.550, 376.389 376.278 C 376.662 376.005, 378.148 376.682, 379.692 377.781 C 383.110 380.215, 387.903 387.716, 401.831 412.431 C 407.699 422.843, 413.063 431.543, 413.750 431.764 C 414.690 432.067, 415 429.837, 415 422.776 L 415 413.386 403.126 395.443 C 396.595 385.574, 390.183 376.549, 388.876 375.386 C 387.569 374.224, 383.350 371.451, 379.500 369.224 C 374.504 366.334, 370.883 363.202, 366.849 358.280 C 362.591 353.085, 359.216 350.234, 353.158 346.713 C 340.852 339.563, 332.586 331.272, 327.873 321.352 C 324.706 314.687, 322.753 312.075, 317.467 307.433 C 311.949 302.589, 301.257 289.330, 302.201 288.502 C 302.366 288.358, 304.812 287.079, 307.638 285.660 C 314.817 282.055, 318.482 277.301, 327.362 260.076 C 336.014 243.293, 339.186 234.863, 340.956 223.944 C 341.620 219.850, 342.353 215.513, 342.586 214.306 C 342.869 212.843, 345.014 211.044, 349.023 208.907 C 356.433 204.957, 361.315 199.696, 363.637 193.158 C 364.992 189.345, 366.180 187.808, 368.703 186.604 C 372.870 184.617, 373.102 182, 369.111 182 C 366.649 182, 366.129 181.520, 365.586 178.750 C 365.236 176.963, 363.413 173.088, 361.534 170.141 C 359.051 166.243, 358.366 164.334, 359.025 163.141 C 359.524 162.238, 360.880 159.190, 362.038 156.368 C 364.996 149.163, 368.508 146.115, 375.042 145.082 C 381.451 144.069, 383.841 141.714, 386.984 133.314 C 390.949 122.716, 392 116.835, 392 105.248 C 392 85.225, 388.155 73.395, 373.879 49.500 C 363.267 31.736, 346.911 14.780, 330.416 4.440 L 323.332 0 257.907 -0 L 192.482 -0 184.491 5.359 M 0.492 256.500 C 0.492 397.300, 0.608 454.751, 0.750 384.170 C 0.892 313.588, 0.892 198.388, 0.750 128.170 C 0.608 57.951, 0.492 115.700, 0.492 256.500 M 255.122 7.278 C 254.505 7.895, 254 8.774, 254 9.231 C 254 10.541, 262.233 24, 263.035 24 C 263.431 24, 264.260 23.392, 264.877 22.648 C 266.257 20.986, 264.797 16.232, 261.247 10.825 C 258.516 6.666, 256.754 5.646, 255.122 7.278 M 280.250 34.930 C 276.753 37.125, 275.742 38.743, 278.934 37.035 C 285.741 33.392, 301.151 39.490, 311.800 50.040 C 315.180 53.390, 322.434 62.064, 327.918 69.315 C 333.402 76.567, 339.750 84.525, 342.024 87 L 346.160 91.500 343.901 87.500 C 342.659 85.300, 337.582 77.650, 332.618 70.500 C 321.424 54.375, 308.051 40.664, 299.500 36.545 C 291.663 32.770, 284.629 32.180, 280.250 34.930 M 240.920 40.888 C 238.329 43.577, 234.852 48.640, 233.193 52.138 C 228.683 61.653, 213.653 101.987, 214.356 102.690 C 214.884 103.217, 222.615 86.218, 228.362 71.893 C 235.612 53.822, 238.304 48.696, 243.020 43.980 C 245.812 41.188, 248.154 39.839, 251 39.384 C 254.264 38.862, 254.813 38.480, 253.892 37.370 C 253.267 36.616, 251.152 36, 249.194 36 C 246.240 36, 244.828 36.834, 240.920 40.888 M 281.500 46.026 C 280.165 46.617, 280.995 46.714, 284 46.317 C 286.475 45.989, 288.688 45.559, 288.917 45.361 C 289.785 44.609, 283.410 45.180, 281.500 46.026 M 261.443 53.223 C 263.209 55.743, 263.498 59.574, 261.992 60.505 C 261.438 60.847, 257.725 60.588, 253.742 59.927 C 247.560 58.903, 245.962 58.954, 242.828 60.280 C 237.942 62.346, 236.499 64.889, 234.474 75 C 229.649 99.096, 220.517 117.528, 201.382 141.796 C 197.351 146.908, 193.529 152.839, 192.889 154.976 C 191.754 158.765, 191.845 159.029, 196.583 165.680 C 203.440 175.306, 208.951 181.065, 212.892 182.720 C 215.957 184.008, 216.134 184.294, 214.731 185.698 C 212.141 188.287, 206.537 184.665, 199.297 175.723 C 195.183 170.643, 193 168.604, 193 169.842 C 193 181.841, 207.664 231.961, 214.178 242.226 C 217.462 247.399, 235.767 265.400, 244.804 272.342 C 256.909 281.639, 263.841 283.436, 285.165 282.799 C 300.695 282.335, 304.440 281.360, 309.216 276.537 C 311.618 274.113, 320.124 259.062, 328.172 243 C 330.869 237.617, 334.556 223.949, 335.184 217.006 L 335.500 213.512 329.615 212.775 C 326.378 212.370, 322.241 211.160, 320.422 210.086 L 317.114 208.135 315.974 213.627 C 314.201 222.165, 308.310 227.913, 299.672 229.534 C 296.412 230.145, 294.690 229.609, 286.706 225.497 C 274.171 219.041, 270.303 215.249, 274.582 213.607 C 277.380 212.533, 279.103 212.934, 287 216.500 C 296.335 220.715, 303.209 221.197, 307.365 217.927 C 309.629 216.146, 310 215.097, 310 210.466 C 310 207.434, 308.898 201.669, 307.481 197.288 C 306.096 193.005, 304.682 186.706, 304.340 183.292 C 303.444 174.341, 301.261 172.500, 292.513 173.317 C 286.323 173.895, 286.023 173.826, 286.976 172.044 C 288.456 169.279, 294.418 167.656, 300.478 168.368 C 306.037 169.022, 305.603 169.315, 308.801 162.750 C 309.002 162.337, 307.581 162, 305.642 162 C 303.704 162, 301.864 161.589, 301.554 161.087 C 300.605 159.552, 311.028 149.017, 315.908 146.579 C 318.434 145.317, 324.550 143.014, 329.500 141.462 C 334.450 139.909, 339 138.045, 339.610 137.319 C 341.328 135.278, 342.062 135.630, 347.694 141.191 C 350.585 144.047, 353.168 146.165, 353.434 145.900 C 354.290 145.043, 351.410 134.635, 349.034 130 C 347.765 127.525, 345.334 123.475, 343.631 121 C 341.929 118.525, 339.116 113.851, 337.380 110.613 L 334.225 104.726 333.090 110.014 C 331.781 116.120, 327.601 124.368, 322.241 131.425 C 315.956 139.698, 315.912 139.596, 316.187 117.343 C 316.408 99.382, 316.220 96.759, 314.203 89.691 C 310.356 76.213, 305.161 67.733, 298.678 64.348 C 296.631 63.279, 294.363 63.061, 290.422 63.553 C 282.019 64.603, 272.166 63.242, 270.164 60.754 C 265.694 55.200, 261.674 51, 260.827 51 C 260.310 51, 260.587 52, 261.443 53.223 M 212.715 69.845 C 203.293 86.412, 185.858 103.948, 172 110.794 C 164.972 114.267, 163.914 114.500, 155.180 114.500 C 146.379 114.500, 146.044 114.575, 149.174 115.852 C 155.023 118.239, 158.632 118.307, 165.678 116.161 C 183.553 110.718, 200.898 94.482, 212.898 71.961 C 218.128 62.145, 217.992 60.566, 212.715 69.845 M 111.078 99.850 C 112.274 105.175, 115.729 113, 116.884 113 C 118.186 113, 116.376 106.690, 113.370 100.750 C 112.048 98.138, 110.797 96, 110.589 96 C 110.382 96, 110.602 97.733, 111.078 99.850 M 236.424 134.561 C 222.694 142.316, 210.989 152.646, 220.750 148.393 C 230.398 144.190, 236.458 142.829, 243.500 143.283 C 250.110 143.709, 256 145.471, 256 147.021 C 256 147.406, 253.750 147.988, 251.001 148.313 C 244.016 149.141, 237.238 152.373, 232.250 157.256 C 225.518 163.846, 227.098 165.280, 234.866 159.629 C 241.108 155.089, 245.433 152.976, 248.200 153.116 C 250.182 153.216, 250.231 153.300, 248.554 153.727 C 240.175 155.859, 229.610 168.608, 235.250 169.782 C 236.453 170.033, 237 169.524, 237 168.155 C 237 167.060, 237.338 165.339, 237.750 164.332 C 238.293 163.005, 238.638 163.739, 239 167 C 239.498 171.478, 239.521 171.502, 243.694 171.805 C 248.914 172.184, 253.462 169.941, 255.513 165.974 C 256.708 163.664, 256.807 162.509, 255.949 160.905 C 254.377 157.967, 255.386 157.496, 259.728 159.140 C 262.048 160.019, 264.423 161.987, 265.897 164.253 C 268.446 168.170, 270 168.316, 270 164.637 C 270 162.427, 265.419 157.320, 261.500 155.162 C 259.591 154.111, 259.610 154.059, 261.912 154.030 C 265.963 153.979, 273.654 159.654, 275.944 164.384 C 278.251 169.150, 278.687 177.732, 276.884 182.902 C 276.271 184.662, 276.035 186.368, 276.360 186.694 C 277.635 187.969, 279.985 184.565, 281.555 179.166 C 283.545 172.321, 283.009 165.856, 280.127 161.958 L 278.032 159.124 281.167 158.812 C 285.405 158.390, 287.911 154.736, 288.590 147.986 L 289.142 142.500 287.161 144.750 C 284.666 147.583, 284 147.582, 284 144.745 C 284 143.098, 283.122 142.185, 280.750 141.361 C 278.962 140.740, 274.350 139.038, 270.500 137.577 C 265.132 135.542, 246.303 130, 244.754 130 C 244.615 130, 240.866 132.053, 236.424 134.561 M 338.185 150.023 C 331.628 150.978, 330.883 151.599, 335.178 152.528 C 339.046 153.365, 347.572 157.498, 348.488 158.981 C 349.936 161.323, 351 159.689, 351 155.125 C 351 150.465, 350.862 150.222, 347.875 149.625 C 346.156 149.281, 344.469 149.056, 344.125 149.125 C 343.781 149.193, 341.108 149.598, 338.185 150.023 M 317.880 159.956 C 315.426 161.582, 312.370 164.776, 311.089 167.056 C 309.032 170.716, 308.811 172.179, 309.200 179.589 C 309.571 186.661, 310.178 189.032, 313.070 194.700 C 317.433 203.251, 322.949 207.091, 330.961 207.153 C 333.846 207.175, 336.722 206.679, 337.353 206.050 C 338.077 205.327, 338.620 199.569, 338.824 190.433 L 339.148 175.960 335.435 178.480 C 329.482 182.519, 318.714 181.571, 313.710 176.567 C 311.315 174.172, 311.569 172.007, 314.250 171.965 L 316.500 171.929 314.371 170.715 C 311.336 168.983, 312.688 166.215, 319.040 161.157 C 325.083 156.346, 324.399 155.638, 317.880 159.956 M 333.873 159.074 C 336.974 160.674, 338.753 162.464, 339.991 165.229 C 341.309 168.172, 341.892 168.725, 342.368 167.482 C 344.523 161.867, 341.767 158.567, 334 157.459 L 329.500 156.818 333.873 159.074 M 143.932 162.144 C 144.985 164.540, 146.823 170.775, 148.016 176 C 150.637 187.476, 156.653 200.500, 161.862 205.975 C 165.427 209.723, 166.069 210, 171.190 210 C 179.386 210, 181.864 213.495, 178.407 220.180 C 177.072 222.761, 176.929 225.308, 177.528 235.881 C 177.929 242.967, 178.825 249.642, 179.571 251.104 C 181.388 254.662, 190.884 263.189, 199.431 268.936 C 206.222 273.503, 224.973 284, 226.340 284 C 227.568 284, 227.009 280.938, 225.100 277.210 C 224.054 275.170, 219.217 269.157, 214.350 263.849 C 202.980 251.449, 200.121 246.570, 192.941 227.321 C 189.695 218.619, 184.005 205.309, 180.295 197.743 L 173.550 183.986 171.751 187.493 C 168.363 194.099, 164.592 191.644, 161.007 180.500 C 156.740 167.238, 151.493 160.166, 144.646 158.447 L 142.019 157.788 143.932 162.144 M 248.380 160.452 C 247.556 162.600, 248.802 164, 251.538 164 C 253.756 164, 253.862 163.792, 252.818 161.500 C 251.560 158.740, 249.247 158.193, 248.380 160.452 M 324.694 163.639 C 323.484 164.850, 325.124 166, 328.059 166 C 330.489 166, 331 166.413, 331 168.378 C 331 172.129, 328.762 173.257, 322.534 172.646 C 319.490 172.347, 317 172.267, 317 172.469 C 317 172.670, 319.137 173.594, 321.750 174.523 C 324.363 175.452, 327.490 176.678, 328.700 177.248 C 331.733 178.677, 336.841 176.481, 337.610 173.416 C 338.460 170.030, 336.710 165.688, 333.921 164.265 C 331.347 162.951, 325.761 162.573, 324.694 163.639 M 272 172.500 C 272 175.991, 272.379 177.884, 273 177.500 C 273.550 177.160, 274 174.910, 274 172.500 C 274 170.090, 273.550 167.840, 273 167.500 C 272.379 167.116, 272 169.009, 272 172.500 M 346.363 172.750 C 343.811 178.021, 343.548 179.650, 343.213 192.309 L 342.847 206.119 346.673 204.151 C 354.017 200.375, 359.956 191.364, 359.956 184 C 359.956 177.908, 353.824 167, 350.399 167 C 349.710 167, 347.894 169.588, 346.363 172.750 M 238.947 173.902 C 241.145 178.008, 245.932 180.147, 252.053 179.756 C 257.348 179.417, 265.026 176.421, 265.689 174.434 C 265.870 173.889, 260.893 173.500, 253.750 173.500 C 247.012 173.500, 240.660 173.094, 239.634 172.598 C 237.957 171.788, 237.887 171.920, 238.947 173.902 M 215.355 191.518 C 213.604 196.081, 223.330 206.483, 232.586 209.946 C 239.265 212.445, 249.744 212.614, 255.500 210.314 C 257.700 209.436, 260.985 208.750, 262.800 208.791 C 265.426 208.850, 266.293 208.359, 267.041 206.393 C 267.558 205.033, 269.222 202.845, 270.740 201.530 C 272.597 199.921, 273.172 198.805, 272.497 198.117 C 271.817 197.423, 269.915 198.077, 266.589 200.147 C 259.417 204.612, 254.377 206.099, 246.407 206.106 C 235.088 206.114, 224.719 201.135, 219.934 193.393 C 217.659 189.712, 216.267 189.142, 215.355 191.518 M 248.250 233.663 C 244.347 235.237, 249.786 239.429, 266.674 247.864 C 274.344 251.694, 277.495 254, 275.059 254 C 274.477 254, 274 254.386, 274 254.857 C 274 256.235, 298.147 254.923, 301.186 253.379 C 302.663 252.629, 305.949 249.315, 308.489 246.014 C 311.029 242.714, 313.983 239.544, 315.053 238.971 C 320.559 236.025, 313.164 235.042, 301.185 237.128 C 292.329 238.670, 258.295 236.347, 251 233.702 C 250.175 233.403, 248.938 233.385, 248.250 233.663 M 272.469 243.453 C 277.544 247.546, 293.692 248.853, 299.750 245.661 C 301.538 244.719, 303 243.725, 303 243.453 C 303 243.180, 299.512 243.068, 295.250 243.205 C 290.988 243.342, 283.675 243.096, 279 242.659 C 271.145 241.925, 270.649 241.986, 272.469 243.453 M 162.895 265.250 C 158.841 271.438, 155.372 276.830, 155.185 277.233 C 154.998 277.636, 159.573 280.179, 165.352 282.885 C 178.804 289.182, 194.939 300.176, 205.783 310.434 C 210.473 314.870, 220.110 325.587, 227.200 334.250 C 234.289 342.913, 240.753 350, 241.565 350 C 243.206 350, 248.776 341.676, 257.411 326.316 C 264.072 314.468, 265.624 312.766, 267.468 315.288 C 269.083 317.496, 274.120 317.505, 280.242 315.310 L 284.984 313.611 287.910 316.414 C 289.519 317.956, 294.560 326.444, 299.112 335.277 C 303.664 344.110, 307.559 350.824, 307.768 350.196 C 307.977 349.569, 306.244 342.630, 303.916 334.778 C 300.085 321.852, 299.649 319.269, 299.309 307.500 C 298.802 289.931, 298.768 289.811, 294.391 290.192 C 291.086 290.479, 290.729 290.855, 289.063 295.795 C 285.674 305.841, 278.922 312.093, 270.728 312.773 C 266.171 313.151, 264.412 312.735, 258.936 309.991 C 252.587 306.809, 224.024 291.423, 206.500 281.745 C 195.270 275.543, 184.599 267.628, 177.086 259.926 C 173.906 256.667, 171.071 254, 170.785 254 C 170.499 254, 166.948 259.063, 162.895 265.250 M 103.362 315.931 C 94.923 318.203, 87.284 321.896, 84.500 325.049 L 82.500 327.314 85 326.578 C 99.117 322.422, 128.018 328.011, 150.500 339.247 C 153.800 340.896, 167.525 348.659, 181 356.499 C 194.475 364.338, 217.875 377.837, 233 386.496 C 248.125 395.155, 263.589 404.235, 267.363 406.673 C 271.138 409.111, 274.452 410.881, 274.728 410.606 C 276.203 409.131, 263.279 391.449, 255.055 383.691 C 244.819 374.035, 227.420 364.356, 182 343.052 C 172.375 338.537, 155.278 330.275, 144.006 324.691 C 125.113 315.330, 123.005 314.517, 117.006 314.273 C 112.942 314.108, 107.821 314.730, 103.362 315.931 M 294 348.535 C 294 352.461, 294.802 354.707, 298.230 360.380 C 300.556 364.231, 303.213 370.333, 304.134 373.940 C 305.755 380.289, 305.844 380.410, 306.903 377.688 C 307.505 376.142, 308.281 371.822, 308.628 368.088 L 309.259 361.300 305.450 358.400 C 303.355 356.805, 299.922 352.843, 297.820 349.595 L 294 343.690 294 348.535 M 249.821 350.595 L 246.142 355.919 251.448 362.392 C 254.365 365.951, 257.760 370.493, 258.990 372.485 C 260.221 374.476, 261.403 375.931, 261.616 375.718 C 261.829 375.505, 262.731 371.407, 263.620 366.612 C 265.046 358.927, 265.062 357.752, 263.758 356.697 C 262.944 356.039, 260.881 353.417, 259.174 350.870 C 257.466 348.324, 255.491 346.022, 254.785 345.755 C 254.045 345.476, 251.939 347.529, 249.821 350.595 M 274.788 361.012 C 275.296 364.467, 277 366.108, 277 363.141 C 277 362.053, 277.273 360.452, 277.607 359.582 C 278.032 358.475, 277.633 358, 276.280 358 C 274.699 358, 274.427 358.549, 274.788 361.012" stroke="none" fill="black" fill-rule="evenodd"/>
</svg>